<mxfile host="65bd71144e">
    <diagram id="EDKRglb2SxqZgP3VJ0Qg" name="Page-1">
        <mxGraphModel dx="733" dy="683" grid="1" gridSize="10" guides="1" tooltips="1" connect="1" arrows="1" fold="1" page="1" pageScale="1" pageWidth="1200" pageHeight="100" math="0" shadow="0">
            <root>
                <mxCell id="0"/>
                <mxCell id="1" parent="0"/>
                <mxCell id="110" value="" style="ellipse;shape=cloud;whiteSpace=wrap;html=1;dashed=1;rotation=-180;" vertex="1" parent="1">
                    <mxGeometry x="700" y="710" width="460" height="340" as="geometry"/>
                </mxCell>
                <mxCell id="102" value="" style="ellipse;shape=cloud;whiteSpace=wrap;html=1;dashed=1;" vertex="1" parent="1">
                    <mxGeometry x="810" y="445" width="380" height="275" as="geometry"/>
                </mxCell>
                <mxCell id="22" style="edgeStyle=none;html=1;entryX=0;entryY=0.5;entryDx=0;entryDy=0;" parent="1" source="7" target="16" edge="1">
                    <mxGeometry relative="1" as="geometry"/>
                </mxCell>
                <mxCell id="33" value="&lt;span style=&quot;color: rgb(0, 0, 0); font-weight: 700;&quot;&gt;Consume&lt;/span&gt;&lt;div&gt;&lt;span style=&quot;color: rgb(0, 0, 0); font-weight: 700;&quot;&gt;Topics&lt;/span&gt;&lt;/div&gt;" style="edgeLabel;html=1;align=center;verticalAlign=middle;resizable=0;points=[];" parent="22" vertex="1" connectable="0">
                    <mxGeometry x="-0.2319" y="1" relative="1" as="geometry">
                        <mxPoint x="14" y="1" as="offset"/>
                    </mxGeometry>
                </mxCell>
                <mxCell id="7" value="&lt;div&gt;&lt;br&gt;&lt;/div&gt;" style="points=[];aspect=fixed;html=1;align=center;shadow=0;dashed=0;fillColor=#FF6A00;strokeColor=none;shape=mxgraph.alibaba_cloud.kafka;" parent="1" vertex="1">
                    <mxGeometry x="320" y="90.74" width="80" height="59.26" as="geometry"/>
                </mxCell>
                <mxCell id="9" value="PSQL" style="image;aspect=fixed;html=1;points=[];align=center;fontSize=12;image=img/lib/azure2/databases/Azure_Database_PostgreSQL_Server.svg;fontStyle=1" parent="1" vertex="1">
                    <mxGeometry x="1000" y="67.03999999999999" width="80" height="106.65" as="geometry"/>
                </mxCell>
                <mxCell id="20" style="edgeStyle=none;html=1;" parent="1" source="10" target="7" edge="1">
                    <mxGeometry relative="1" as="geometry"/>
                </mxCell>
                <mxCell id="31" value="Data Source" style="edgeLabel;html=1;align=center;verticalAlign=middle;resizable=0;points=[];fontStyle=1" parent="20" vertex="1" connectable="0">
                    <mxGeometry x="-0.3922" y="1" relative="1" as="geometry">
                        <mxPoint x="25" y="1" as="offset"/>
                    </mxGeometry>
                </mxCell>
                <mxCell id="10" value="Stuff Happens" style="sketch=0;outlineConnect=0;fontColor=#232F3E;gradientColor=none;fillColor=#232F3D;strokeColor=none;dashed=0;verticalLabelPosition=bottom;verticalAlign=top;align=center;html=1;fontSize=12;fontStyle=1;aspect=fixed;pointerEvents=1;shape=mxgraph.aws4.data_stream;" parent="1" vertex="1">
                    <mxGeometry x="120" y="81.37" width="78" height="78" as="geometry"/>
                </mxCell>
                <mxCell id="15" value="&lt;b&gt;Leaderboad Service&lt;/b&gt;" style="swimlane;fontStyle=0;childLayout=stackLayout;horizontal=1;startSize=30;horizontalStack=0;resizeParent=1;resizeParentMax=0;resizeLast=0;collapsible=1;marginBottom=0;whiteSpace=wrap;html=1;" parent="1" vertex="1">
                    <mxGeometry x="520" y="75.37" width="160" height="90" as="geometry">
                        <mxRectangle x="520" y="75.37" width="150" height="30" as="alternateBounds"/>
                    </mxGeometry>
                </mxCell>
                <mxCell id="16" value="Event processing" style="text;strokeColor=none;fillColor=none;align=center;verticalAlign=middle;spacingLeft=4;spacingRight=4;overflow=hidden;points=[[0,0.5],[1,0.5]];portConstraint=eastwest;rotatable=0;whiteSpace=wrap;html=1;" parent="15" vertex="1">
                    <mxGeometry y="30" width="160" height="30" as="geometry"/>
                </mxCell>
                <mxCell id="17" value="API (Query Leaderboards)" style="text;strokeColor=none;fillColor=none;align=center;verticalAlign=middle;spacingLeft=4;spacingRight=4;overflow=hidden;points=[[0,0.5],[1,0.5]];portConstraint=eastwest;rotatable=0;whiteSpace=wrap;html=1;" parent="15" vertex="1">
                    <mxGeometry y="60" width="160" height="30" as="geometry"/>
                </mxCell>
                <mxCell id="26" value="Redis" style="image;sketch=0;aspect=fixed;html=1;points=[];align=center;fontSize=12;image=img/lib/mscae/Cache_Redis_Product.svg;fontStyle=1" parent="1" vertex="1">
                    <mxGeometry x="800" y="60" width="80" height="67.2" as="geometry"/>
                </mxCell>
                <mxCell id="27" style="edgeStyle=none;html=1;exitX=1;exitY=0.5;exitDx=0;exitDy=0;entryX=0;entryY=0.497;entryDx=0;entryDy=0;entryPerimeter=0;" parent="1" source="15" target="26" edge="1">
                    <mxGeometry relative="1" as="geometry"/>
                </mxCell>
                <mxCell id="34" value="&lt;span style=&quot;color: rgb(0, 0, 0); font-weight: 700;&quot;&gt;Caching&lt;/span&gt;" style="edgeLabel;html=1;align=center;verticalAlign=middle;resizable=0;points=[];" parent="27" vertex="1" connectable="0">
                    <mxGeometry x="-0.3913" relative="1" as="geometry">
                        <mxPoint x="23" y="-7" as="offset"/>
                    </mxGeometry>
                </mxCell>
                <mxCell id="28" style="edgeStyle=none;html=1;entryX=0;entryY=0.5;entryDx=0;entryDy=0;entryPerimeter=0;exitX=1;exitY=0.5;exitDx=0;exitDy=0;" parent="1" source="16" target="9" edge="1">
                    <mxGeometry relative="1" as="geometry">
                        <Array as="points">
                            <mxPoint x="840" y="170"/>
                        </Array>
                    </mxGeometry>
                </mxCell>
                <mxCell id="30" value="Persistent&lt;div&gt;Storage&lt;/div&gt;" style="edgeLabel;html=1;align=center;verticalAlign=middle;resizable=0;points=[];fontStyle=1" parent="28" vertex="1" connectable="0">
                    <mxGeometry x="-0.3745" y="-1" relative="1" as="geometry">
                        <mxPoint x="150" y="-12" as="offset"/>
                    </mxGeometry>
                </mxCell>
                <mxCell id="35" value="Kafka" style="text;html=1;align=center;verticalAlign=middle;resizable=0;points=[];autosize=1;strokeColor=none;fillColor=none;fontStyle=1" parent="1" vertex="1">
                    <mxGeometry x="335" y="150" width="50" height="30" as="geometry"/>
                </mxCell>
                <mxCell id="36" value="" style="edgeStyle=none;orthogonalLoop=1;jettySize=auto;html=1;endArrow=none;startArrow=none;endSize=8;startSize=8;startFill=0;endFill=0;" parent="1" edge="1">
                    <mxGeometry width="100" relative="1" as="geometry">
                        <mxPoint x="80" y="240" as="sourcePoint"/>
                        <mxPoint x="1160" y="240" as="targetPoint"/>
                        <Array as="points"/>
                    </mxGeometry>
                </mxCell>
                <mxCell id="37" value="Event Ingestion" style="text;html=1;align=left;verticalAlign=middle;resizable=0;points=[];autosize=1;strokeColor=none;fillColor=none;fontStyle=1;fontSize=17;" parent="1" vertex="1">
                    <mxGeometry x="80" y="20" width="140" height="30" as="geometry"/>
                </mxCell>
                <mxCell id="38" value="User Request Flow" style="text;html=1;align=left;verticalAlign=middle;resizable=0;points=[];autosize=1;strokeColor=none;fillColor=none;fontStyle=1;fontSize=17;" parent="1" vertex="1">
                    <mxGeometry x="80" y="260" width="170" height="30" as="geometry"/>
                </mxCell>
                <mxCell id="39" value="User" style="shape=umlActor;verticalLabelPosition=bottom;verticalAlign=top;html=1;outlineConnect=0;" parent="1" vertex="1">
                    <mxGeometry x="225" y="330" width="30" height="60" as="geometry"/>
                </mxCell>
                <mxCell id="40" value="&lt;b&gt;Leaderboad Service&lt;/b&gt;" style="swimlane;fontStyle=0;childLayout=stackLayout;horizontal=1;startSize=30;horizontalStack=0;resizeParent=1;resizeParentMax=0;resizeLast=0;collapsible=1;marginBottom=0;whiteSpace=wrap;html=1;" vertex="1" parent="1">
                    <mxGeometry x="440" y="280" width="160" height="90" as="geometry">
                        <mxRectangle x="520" y="75.37" width="150" height="30" as="alternateBounds"/>
                    </mxGeometry>
                </mxCell>
                <mxCell id="41" value="Event processing" style="text;strokeColor=none;fillColor=none;align=center;verticalAlign=middle;spacingLeft=4;spacingRight=4;overflow=hidden;points=[[0,0.5],[1,0.5]];portConstraint=eastwest;rotatable=0;whiteSpace=wrap;html=1;" vertex="1" parent="40">
                    <mxGeometry y="30" width="160" height="30" as="geometry"/>
                </mxCell>
                <mxCell id="42" value="API (Query Leaderboards)" style="text;strokeColor=none;fillColor=none;align=center;verticalAlign=middle;spacingLeft=4;spacingRight=4;overflow=hidden;points=[[0,0.5],[1,0.5]];portConstraint=eastwest;rotatable=0;whiteSpace=wrap;html=1;" vertex="1" parent="40">
                    <mxGeometry y="60" width="160" height="30" as="geometry"/>
                </mxCell>
                <mxCell id="43" style="edgeStyle=none;html=1;entryX=0;entryY=0.333;entryDx=0;entryDy=0;entryPerimeter=0;" edge="1" parent="1" target="42">
                    <mxGeometry relative="1" as="geometry">
                        <mxPoint x="281" y="350" as="sourcePoint"/>
                        <mxPoint x="421" y="340" as="targetPoint"/>
                    </mxGeometry>
                </mxCell>
                <mxCell id="62" value="&lt;span style=&quot;color: rgb(0, 0, 0); font-weight: 700;&quot;&gt;Request Leaderboard&lt;/span&gt;" style="edgeLabel;html=1;align=center;verticalAlign=middle;resizable=0;points=[];" vertex="1" connectable="0" parent="43">
                    <mxGeometry x="-0.6261" relative="1" as="geometry">
                        <mxPoint x="60" y="-10" as="offset"/>
                    </mxGeometry>
                </mxCell>
                <mxCell id="52" style="edgeStyle=none;html=1;entryX=1.016;entryY=0.729;entryDx=0;entryDy=0;exitX=0.015;exitY=0.523;exitDx=0;exitDy=0;exitPerimeter=0;entryPerimeter=0;" edge="1" parent="1" source="48" target="41">
                    <mxGeometry relative="1" as="geometry"/>
                </mxCell>
                <mxCell id="48" value="Redis" style="image;sketch=0;aspect=fixed;html=1;points=[];align=center;fontSize=12;image=img/lib/mscae/Cache_Redis_Product.svg;fontStyle=1" vertex="1" parent="1">
                    <mxGeometry x="721" y="270" width="80" height="67.2" as="geometry"/>
                </mxCell>
                <mxCell id="49" value="PSQL" style="image;aspect=fixed;html=1;points=[];align=center;fontSize=12;image=img/lib/azure2/databases/Azure_Database_PostgreSQL_Server.svg;fontStyle=1" vertex="1" parent="1">
                    <mxGeometry x="921" y="290" width="80" height="106.65" as="geometry"/>
                </mxCell>
                <mxCell id="51" style="edgeStyle=none;html=1;exitX=1;exitY=0.5;exitDx=0;exitDy=0;entryX=-0.008;entryY=0.437;entryDx=0;entryDy=0;entryPerimeter=0;" edge="1" parent="1" source="41" target="48">
                    <mxGeometry relative="1" as="geometry">
                        <mxPoint x="721" y="340" as="targetPoint"/>
                        <mxPoint x="601" y="340" as="sourcePoint"/>
                    </mxGeometry>
                </mxCell>
                <mxCell id="53" value="Fast Cache Hits" style="edgeLabel;html=1;align=center;verticalAlign=middle;resizable=0;points=[];" vertex="1" connectable="0" parent="51">
                    <mxGeometry x="0.1593" y="-2" relative="1" as="geometry">
                        <mxPoint x="-10" y="5" as="offset"/>
                    </mxGeometry>
                </mxCell>
                <mxCell id="54" style="edgeStyle=none;html=1;exitX=1;exitY=0.5;exitDx=0;exitDy=0;entryX=0.023;entryY=0.477;entryDx=0;entryDy=0;entryPerimeter=0;" edge="1" parent="1" source="42" target="49">
                    <mxGeometry relative="1" as="geometry">
                        <mxPoint x="731" y="380" as="targetPoint"/>
                        <Array as="points">
                            <mxPoint x="761" y="370"/>
                        </Array>
                    </mxGeometry>
                </mxCell>
                <mxCell id="55" style="edgeStyle=none;html=1;entryX=1.011;entryY=0.743;entryDx=0;entryDy=0;entryPerimeter=0;" edge="1" parent="1" source="49" target="42">
                    <mxGeometry relative="1" as="geometry">
                        <Array as="points">
                            <mxPoint x="761" y="380"/>
                        </Array>
                    </mxGeometry>
                </mxCell>
                <mxCell id="57" value="Cache Miss&lt;div&gt;Lookups&lt;/div&gt;" style="edgeLabel;html=1;align=center;verticalAlign=middle;resizable=0;points=[];" vertex="1" connectable="0" parent="1">
                    <mxGeometry x="858.3345098121752" y="355.4817428628055" as="geometry"/>
                </mxCell>
                <mxCell id="58" style="edgeStyle=none;html=1;exitX=0;exitY=0.5;exitDx=0;exitDy=0;" edge="1" parent="1">
                    <mxGeometry relative="1" as="geometry">
                        <mxPoint x="281" y="360.04255319148933" as="targetPoint"/>
                        <mxPoint x="441" y="360" as="sourcePoint"/>
                    </mxGeometry>
                </mxCell>
                <mxCell id="60" value="&lt;b&gt;Fast Paginated Result&lt;/b&gt;" style="edgeLabel;html=1;align=center;verticalAlign=middle;resizable=0;points=[];" vertex="1" connectable="0" parent="58">
                    <mxGeometry x="-0.18" y="1" relative="1" as="geometry">
                        <mxPoint x="-24" y="9" as="offset"/>
                    </mxGeometry>
                </mxCell>
                <mxCell id="63" value="" style="edgeStyle=none;orthogonalLoop=1;jettySize=auto;html=1;endArrow=none;startArrow=none;endSize=8;startSize=8;startFill=0;endFill=0;" edge="1" parent="1">
                    <mxGeometry width="100" relative="1" as="geometry">
                        <mxPoint x="80" y="440" as="sourcePoint"/>
                        <mxPoint x="1160" y="440" as="targetPoint"/>
                        <Array as="points"/>
                    </mxGeometry>
                </mxCell>
                <mxCell id="64" value="Scalability" style="text;html=1;align=left;verticalAlign=middle;resizable=0;points=[];autosize=1;strokeColor=none;fillColor=none;fontStyle=1;fontSize=17;" vertex="1" parent="1">
                    <mxGeometry x="80" y="460" width="100" height="30" as="geometry"/>
                </mxCell>
                <mxCell id="65" value="" style="points=[];aspect=fixed;html=1;align=center;shadow=0;dashed=0;fillColor=#FF6A00;strokeColor=none;shape=mxgraph.alibaba_cloud.kafka;" vertex="1" parent="1">
                    <mxGeometry x="159.5" y="540" width="81" height="60" as="geometry"/>
                </mxCell>
                <mxCell id="68" value="&lt;b&gt;Kafka Partitions&lt;/b&gt;&lt;div&gt;Preserves order inside each partition&lt;/div&gt;" style="text;html=1;align=center;verticalAlign=middle;resizable=0;points=[];autosize=1;strokeColor=none;fillColor=none;" vertex="1" parent="1">
                    <mxGeometry x="90" y="765.67" width="220" height="40" as="geometry"/>
                </mxCell>
                <mxCell id="115" style="edgeStyle=none;html=1;exitX=1;exitY=0.5;exitDx=0;exitDy=0;exitPerimeter=0;entryX=0;entryY=0.25;entryDx=0;entryDy=0;" edge="1" parent="1" source="70" target="73">
                    <mxGeometry relative="1" as="geometry"/>
                </mxCell>
                <mxCell id="70" value="" style="outlineConnect=0;dashed=0;verticalLabelPosition=bottom;verticalAlign=top;align=center;html=1;shape=mxgraph.aws3.queue;fillColor=#FF8000;gradientColor=none;" vertex="1" parent="1">
                    <mxGeometry x="140" y="610" width="120" height="30" as="geometry"/>
                </mxCell>
                <mxCell id="128" style="edgeStyle=none;html=1;exitX=1;exitY=0.5;exitDx=0;exitDy=0;exitPerimeter=0;entryX=0;entryY=0.25;entryDx=0;entryDy=0;" edge="1" parent="1" source="71" target="73">
                    <mxGeometry relative="1" as="geometry"/>
                </mxCell>
                <mxCell id="71" value="" style="outlineConnect=0;dashed=0;verticalLabelPosition=bottom;verticalAlign=top;align=center;html=1;shape=mxgraph.aws3.queue;fillColor=#FF8000;gradientColor=none;" vertex="1" parent="1">
                    <mxGeometry x="140" y="650" width="120" height="30" as="geometry"/>
                </mxCell>
                <mxCell id="117" style="edgeStyle=none;html=1;exitX=1;exitY=0.5;exitDx=0;exitDy=0;exitPerimeter=0;entryX=0;entryY=0.25;entryDx=0;entryDy=0;" edge="1" parent="1" source="127" target="80">
                    <mxGeometry relative="1" as="geometry"/>
                </mxCell>
                <mxCell id="72" value="" style="outlineConnect=0;dashed=0;verticalLabelPosition=bottom;verticalAlign=top;align=center;html=1;shape=mxgraph.aws3.queue;fillColor=#FF8000;gradientColor=none;" vertex="1" parent="1">
                    <mxGeometry x="140" y="690" width="120" height="30" as="geometry"/>
                </mxCell>
                <mxCell id="73" value="&lt;b&gt;Leaderboad Service&lt;/b&gt;" style="swimlane;fontStyle=0;childLayout=stackLayout;horizontal=1;startSize=30;horizontalStack=0;resizeParent=1;resizeParentMax=0;resizeLast=0;collapsible=1;marginBottom=0;whiteSpace=wrap;html=1;" vertex="1" parent="1">
                    <mxGeometry x="440" y="560" width="160" height="60" as="geometry">
                        <mxRectangle x="400" y="610" width="150" height="30" as="alternateBounds"/>
                    </mxGeometry>
                </mxCell>
                <mxCell id="74" value="&lt;font&gt;Stateless&lt;/font&gt;&lt;div&gt;&lt;font&gt;Horizontally Scalable&lt;/font&gt;&lt;/div&gt;" style="text;strokeColor=none;fillColor=none;align=center;verticalAlign=middle;spacingLeft=4;spacingRight=4;overflow=hidden;points=[[0,0.5],[1,0.5]];portConstraint=eastwest;rotatable=0;whiteSpace=wrap;html=1;fontSize=11;" vertex="1" parent="73">
                    <mxGeometry y="30" width="160" height="30" as="geometry"/>
                </mxCell>
                <mxCell id="78" value="&lt;b&gt;Leaderboad Service&lt;/b&gt;" style="swimlane;fontStyle=0;childLayout=stackLayout;horizontal=1;startSize=30;horizontalStack=0;resizeParent=1;resizeParentMax=0;resizeLast=0;collapsible=1;marginBottom=0;whiteSpace=wrap;html=1;" vertex="1" parent="1">
                    <mxGeometry x="440" y="660" width="160" height="60" as="geometry">
                        <mxRectangle x="400" y="610" width="150" height="30" as="alternateBounds"/>
                    </mxGeometry>
                </mxCell>
                <mxCell id="79" value="Stateless&lt;div&gt;Horizontally Scalable&lt;/div&gt;" style="text;strokeColor=none;fillColor=none;align=center;verticalAlign=middle;spacingLeft=4;spacingRight=4;overflow=hidden;points=[[0,0.5],[1,0.5]];portConstraint=eastwest;rotatable=0;whiteSpace=wrap;html=1;fontSize=11;" vertex="1" parent="78">
                    <mxGeometry y="30" width="160" height="30" as="geometry"/>
                </mxCell>
                <mxCell id="80" value="&lt;b&gt;Leaderboad Service&lt;/b&gt;" style="swimlane;fontStyle=0;childLayout=stackLayout;horizontal=1;startSize=30;horizontalStack=0;resizeParent=1;resizeParentMax=0;resizeLast=0;collapsible=1;marginBottom=0;whiteSpace=wrap;html=1;" vertex="1" parent="1">
                    <mxGeometry x="440" y="760" width="160" height="60" as="geometry">
                        <mxRectangle x="400" y="610" width="150" height="30" as="alternateBounds"/>
                    </mxGeometry>
                </mxCell>
                <mxCell id="81" value="Stateless&lt;div&gt;Horizontally Scalable&lt;/div&gt;" style="text;strokeColor=none;fillColor=none;align=center;verticalAlign=middle;spacingLeft=4;spacingRight=4;overflow=hidden;points=[[0,0.5],[1,0.5]];portConstraint=eastwest;rotatable=0;whiteSpace=wrap;html=1;fontSize=11;" vertex="1" parent="80">
                    <mxGeometry y="30" width="160" height="30" as="geometry"/>
                </mxCell>
                <mxCell id="82" value="Redis" style="image;sketch=0;aspect=fixed;html=1;points=[];align=center;fontSize=12;image=img/lib/mscae/Cache_Redis_Product.svg;fontStyle=1" vertex="1" parent="1">
                    <mxGeometry x="880" y="540" width="80" height="67.2" as="geometry"/>
                </mxCell>
                <mxCell id="83" value="Redis" style="image;sketch=0;aspect=fixed;html=1;points=[];align=center;fontSize=12;image=img/lib/mscae/Cache_Redis_Product.svg;fontStyle=1" vertex="1" parent="1">
                    <mxGeometry x="1040" y="509.99999999999994" width="80" height="67.2" as="geometry"/>
                </mxCell>
                <mxCell id="84" value="Redis" style="image;sketch=0;aspect=fixed;html=1;points=[];align=center;fontSize=12;image=img/lib/mscae/Cache_Redis_Product.svg;fontStyle=1" vertex="1" parent="1">
                    <mxGeometry x="978.33" y="592.8" width="80" height="67.2" as="geometry"/>
                </mxCell>
                <mxCell id="97" style="edgeStyle=none;html=1;entryX=0;entryY=0.5;entryDx=0;entryDy=0;" edge="1" parent="1" target="79">
                    <mxGeometry relative="1" as="geometry">
                        <mxPoint x="340" y="900" as="sourcePoint"/>
                    </mxGeometry>
                </mxCell>
                <mxCell id="98" style="edgeStyle=none;html=1;entryX=0;entryY=0.5;entryDx=0;entryDy=0;" edge="1" parent="1" target="81">
                    <mxGeometry relative="1" as="geometry">
                        <mxPoint x="340" y="900" as="sourcePoint"/>
                    </mxGeometry>
                </mxCell>
                <mxCell id="91" value="" style="edgeStyle=none;html=1;" edge="1" parent="1">
                    <mxGeometry relative="1" as="geometry">
                        <mxPoint x="245" y="949" as="sourcePoint"/>
                        <mxPoint x="300" y="925.0106382978722" as="targetPoint"/>
                    </mxGeometry>
                </mxCell>
                <mxCell id="89" value="Lots of&lt;div&gt;Users&lt;/div&gt;" style="shape=umlActor;verticalLabelPosition=bottom;verticalAlign=top;html=1;outlineConnect=0;" vertex="1" parent="1">
                    <mxGeometry x="205" y="899" width="30" height="60" as="geometry"/>
                </mxCell>
                <mxCell id="90" value="" style="shape=umlActor;verticalLabelPosition=bottom;verticalAlign=top;html=1;outlineConnect=0;" vertex="1" parent="1">
                    <mxGeometry x="255" y="947" width="30" height="60" as="geometry"/>
                </mxCell>
                <mxCell id="95" value="" style="shape=umlActor;verticalLabelPosition=bottom;verticalAlign=top;html=1;outlineConnect=0;" vertex="1" parent="1">
                    <mxGeometry x="160" y="947" width="30" height="60" as="geometry"/>
                </mxCell>
                <mxCell id="96" style="edgeStyle=none;html=1;entryX=0;entryY=0.5;entryDx=0;entryDy=0;" edge="1" parent="1" target="74">
                    <mxGeometry relative="1" as="geometry">
                        <mxPoint x="340" y="900" as="sourcePoint"/>
                        <mxPoint x="420" y="580" as="targetPoint"/>
                    </mxGeometry>
                </mxCell>
                <mxCell id="103" value="Redis Cluster" style="text;html=1;align=center;verticalAlign=middle;resizable=0;points=[];autosize=1;strokeColor=none;fillColor=none;fontStyle=1" vertex="1" parent="1">
                    <mxGeometry x="930" y="500" width="100" height="30" as="geometry"/>
                </mxCell>
                <mxCell id="104" value="Primary&lt;div&gt;Read/Write&lt;/div&gt;" style="image;aspect=fixed;html=1;points=[];align=center;fontSize=12;image=img/lib/azure2/databases/Azure_Database_PostgreSQL_Server.svg;fontStyle=1" vertex="1" parent="1">
                    <mxGeometry x="780" y="790.6699999999998" width="80" height="106.65" as="geometry"/>
                </mxCell>
                <mxCell id="105" value="Replica&lt;div&gt;Read Only&lt;/div&gt;" style="image;aspect=fixed;html=1;points=[];align=center;fontSize=12;image=img/lib/azure2/databases/Azure_Database_PostgreSQL_Server.svg;fontStyle=1" vertex="1" parent="1">
                    <mxGeometry x="985" y="805.6699999999997" width="80" height="106.65" as="geometry"/>
                </mxCell>
                <mxCell id="106" value="&lt;div&gt;Replica&lt;/div&gt;PSQL" style="image;aspect=fixed;html=1;points=[];align=center;fontSize=12;image=img/lib/azure2/databases/Azure_Database_PostgreSQL_Server.svg;fontStyle=1" vertex="1" parent="1">
                    <mxGeometry x="883.33" y="831.3499999999998" width="80" height="106.65" as="geometry"/>
                </mxCell>
                <mxCell id="111" value="Replication Cluster" style="text;html=1;align=center;verticalAlign=middle;resizable=0;points=[];autosize=1;strokeColor=none;fillColor=none;fontStyle=1" vertex="1" parent="1">
                    <mxGeometry x="860" y="750" width="120" height="30" as="geometry"/>
                </mxCell>
                <mxCell id="116" style="edgeStyle=none;html=1;exitX=1;exitY=0.5;exitDx=0;exitDy=0;exitPerimeter=0;entryX=0;entryY=0.25;entryDx=0;entryDy=0;" edge="1" parent="1" source="72" target="78">
                    <mxGeometry relative="1" as="geometry"/>
                </mxCell>
                <mxCell id="121" value="" style="ellipse;whiteSpace=wrap;html=1;" vertex="1" parent="1">
                    <mxGeometry x="300" y="867" width="80" height="80" as="geometry"/>
                </mxCell>
                <mxCell id="122" value="&lt;span style=&quot;color: rgb(35, 47, 62);&quot;&gt;Load Balancer&lt;/span&gt;" style="sketch=0;outlineConnect=0;fontColor=#232F3E;gradientColor=none;fillColor=#8C4FFF;strokeColor=none;dashed=0;verticalLabelPosition=bottom;verticalAlign=top;align=center;html=1;fontSize=12;fontStyle=0;aspect=fixed;pointerEvents=1;shape=mxgraph.aws4.network_load_balancer;" vertex="1" parent="1">
                    <mxGeometry x="301" y="868" width="78" height="78" as="geometry"/>
                </mxCell>
                <mxCell id="127" value="" style="outlineConnect=0;dashed=0;verticalLabelPosition=bottom;verticalAlign=top;align=center;html=1;shape=mxgraph.aws3.queue;fillColor=#FF8000;gradientColor=none;" vertex="1" parent="1">
                    <mxGeometry x="140" y="730" width="120" height="30" as="geometry"/>
                </mxCell>
                <mxCell id="130" value="" style="shape=flexArrow;endArrow=classic;html=1;endWidth=41.836734693877546;endSize=19.214285714285715;width=67.14285714285715;" edge="1" parent="1">
                    <mxGeometry width="50" height="50" relative="1" as="geometry">
                        <mxPoint x="670" y="622.8" as="sourcePoint"/>
                        <mxPoint x="810" y="592.8" as="targetPoint"/>
                    </mxGeometry>
                </mxCell>
                <mxCell id="131" value="" style="shape=flexArrow;endArrow=classic;html=1;endWidth=41.836734693877546;endSize=19.214285714285715;width=67.14285714285715;" edge="1" parent="1">
                    <mxGeometry width="50" height="50" relative="1" as="geometry">
                        <mxPoint x="650" y="720" as="sourcePoint"/>
                        <mxPoint x="780" y="746" as="targetPoint"/>
                    </mxGeometry>
                </mxCell>
                <mxCell id="132" value="" style="edgeStyle=none;orthogonalLoop=1;jettySize=auto;html=1;endArrow=none;startArrow=none;endSize=8;startSize=8;startFill=0;endFill=0;" edge="1" parent="1">
                    <mxGeometry width="100" relative="1" as="geometry">
                        <mxPoint x="80" y="1040" as="sourcePoint"/>
                        <mxPoint x="1160" y="1040" as="targetPoint"/>
                        <Array as="points"/>
                    </mxGeometry>
                </mxCell>
                <mxCell id="133" value="Even Better: Stream Processing and Leaderboard Querying Decoupled" style="text;html=1;align=left;verticalAlign=middle;resizable=0;points=[];autosize=1;strokeColor=none;fillColor=none;fontStyle=1;fontSize=17;" vertex="1" parent="1">
                    <mxGeometry x="80" y="1060" width="560" height="30" as="geometry"/>
                </mxCell>
                <mxCell id="134" value="" style="points=[];aspect=fixed;html=1;align=center;shadow=0;dashed=0;fillColor=#FF6A00;strokeColor=none;shape=mxgraph.alibaba_cloud.kafka;" vertex="1" parent="1">
                    <mxGeometry x="159.5" y="1140" width="81" height="60" as="geometry"/>
                </mxCell>
                <mxCell id="135" value="&lt;b&gt;Kafka Partitions&lt;/b&gt;&lt;div&gt;Preserves order inside each partition&lt;/div&gt;" style="text;html=1;align=center;verticalAlign=middle;resizable=0;points=[];autosize=1;strokeColor=none;fillColor=none;" vertex="1" parent="1">
                    <mxGeometry x="90" y="1365.67" width="220" height="40" as="geometry"/>
                </mxCell>
                <mxCell id="136" value="" style="outlineConnect=0;dashed=0;verticalLabelPosition=bottom;verticalAlign=top;align=center;html=1;shape=mxgraph.aws3.queue;fillColor=#FF8000;gradientColor=none;" vertex="1" parent="1">
                    <mxGeometry x="140" y="1210" width="120" height="30" as="geometry"/>
                </mxCell>
                <mxCell id="137" value="" style="outlineConnect=0;dashed=0;verticalLabelPosition=bottom;verticalAlign=top;align=center;html=1;shape=mxgraph.aws3.queue;fillColor=#FF8000;gradientColor=none;" vertex="1" parent="1">
                    <mxGeometry x="140" y="1250" width="120" height="30" as="geometry"/>
                </mxCell>
                <mxCell id="138" value="" style="outlineConnect=0;dashed=0;verticalLabelPosition=bottom;verticalAlign=top;align=center;html=1;shape=mxgraph.aws3.queue;fillColor=#FF8000;gradientColor=none;" vertex="1" parent="1">
                    <mxGeometry x="140" y="1290" width="120" height="30" as="geometry"/>
                </mxCell>
                <mxCell id="170" style="edgeStyle=none;html=1;exitX=1;exitY=0.5;exitDx=0;exitDy=0;exitPerimeter=0;" edge="1" parent="1" source="139">
                    <mxGeometry relative="1" as="geometry">
                        <mxPoint x="430" y="1200" as="targetPoint"/>
                    </mxGeometry>
                </mxCell>
                <mxCell id="139" value="" style="outlineConnect=0;dashed=0;verticalLabelPosition=bottom;verticalAlign=top;align=center;html=1;shape=mxgraph.aws3.queue;fillColor=#FF8000;gradientColor=none;" vertex="1" parent="1">
                    <mxGeometry x="140" y="1330" width="120" height="30" as="geometry"/>
                </mxCell>
                <mxCell id="150" value="" style="ellipse;shape=cloud;whiteSpace=wrap;html=1;dashed=1;rotation=-180;" vertex="1" parent="1">
                    <mxGeometry x="680" y="1315" width="460" height="340" as="geometry"/>
                </mxCell>
                <mxCell id="151" value="" style="ellipse;shape=cloud;whiteSpace=wrap;html=1;dashed=1;" vertex="1" parent="1">
                    <mxGeometry x="790" y="1050" width="380" height="275" as="geometry"/>
                </mxCell>
                <mxCell id="152" value="Redis" style="image;sketch=0;aspect=fixed;html=1;points=[];align=center;fontSize=12;image=img/lib/mscae/Cache_Redis_Product.svg;fontStyle=1" vertex="1" parent="1">
                    <mxGeometry x="860" y="1145" width="80" height="67.2" as="geometry"/>
                </mxCell>
                <mxCell id="153" value="Redis" style="image;sketch=0;aspect=fixed;html=1;points=[];align=center;fontSize=12;image=img/lib/mscae/Cache_Redis_Product.svg;fontStyle=1" vertex="1" parent="1">
                    <mxGeometry x="1020" y="1115" width="80" height="67.2" as="geometry"/>
                </mxCell>
                <mxCell id="154" value="Redis" style="image;sketch=0;aspect=fixed;html=1;points=[];align=center;fontSize=12;image=img/lib/mscae/Cache_Redis_Product.svg;fontStyle=1" vertex="1" parent="1">
                    <mxGeometry x="958.33" y="1197.8" width="80" height="67.2" as="geometry"/>
                </mxCell>
                <mxCell id="155" value="Redis Cluster" style="text;html=1;align=center;verticalAlign=middle;resizable=0;points=[];autosize=1;strokeColor=none;fillColor=none;fontStyle=1" vertex="1" parent="1">
                    <mxGeometry x="910" y="1105" width="100" height="30" as="geometry"/>
                </mxCell>
                <mxCell id="156" value="Primary&lt;div&gt;Read/Write&lt;/div&gt;" style="image;aspect=fixed;html=1;points=[];align=center;fontSize=12;image=img/lib/azure2/databases/Azure_Database_PostgreSQL_Server.svg;fontStyle=1" vertex="1" parent="1">
                    <mxGeometry x="760" y="1395.6699999999998" width="80" height="106.65" as="geometry"/>
                </mxCell>
                <mxCell id="157" value="Replica&lt;div&gt;Read Only&lt;/div&gt;" style="image;aspect=fixed;html=1;points=[];align=center;fontSize=12;image=img/lib/azure2/databases/Azure_Database_PostgreSQL_Server.svg;fontStyle=1" vertex="1" parent="1">
                    <mxGeometry x="965" y="1410.6699999999996" width="80" height="106.65" as="geometry"/>
                </mxCell>
                <mxCell id="158" value="&lt;div&gt;Replica&lt;/div&gt;PSQL" style="image;aspect=fixed;html=1;points=[];align=center;fontSize=12;image=img/lib/azure2/databases/Azure_Database_PostgreSQL_Server.svg;fontStyle=1" vertex="1" parent="1">
                    <mxGeometry x="863.33" y="1436.35" width="80" height="106.65" as="geometry"/>
                </mxCell>
                <mxCell id="159" value="Replication Cluster" style="text;html=1;align=center;verticalAlign=middle;resizable=0;points=[];autosize=1;strokeColor=none;fillColor=none;fontStyle=1" vertex="1" parent="1">
                    <mxGeometry x="840" y="1355" width="120" height="30" as="geometry"/>
                </mxCell>
                <mxCell id="162" value="Flink Stream Processing&lt;div&gt;(Scales Independently)&lt;/div&gt;" style="sketch=0;points=[[0,0,0],[0.25,0,0],[0.5,0,0],[0.75,0,0],[1,0,0],[0,1,0],[0.25,1,0],[0.5,1,0],[0.75,1,0],[1,1,0],[0,0.25,0],[0,0.5,0],[0,0.75,0],[1,0.25,0],[1,0.5,0],[1,0.75,0]];outlineConnect=0;fontColor=#232F3E;fillColor=#8C4FFF;strokeColor=#ffffff;dashed=0;verticalLabelPosition=bottom;verticalAlign=top;align=center;html=1;fontSize=12;fontStyle=0;aspect=fixed;shape=mxgraph.aws4.resourceIcon;resIcon=mxgraph.aws4.managed_service_for_apache_flink;" vertex="1" parent="1">
                    <mxGeometry x="430" y="1162" width="78" height="78" as="geometry"/>
                </mxCell>
                <mxCell id="163" style="edgeStyle=none;html=1;exitX=1;exitY=0.5;exitDx=0;exitDy=0;exitPerimeter=0;entryX=0;entryY=0.5;entryDx=0;entryDy=0;entryPerimeter=0;" edge="1" parent="1" source="137" target="162">
                    <mxGeometry relative="1" as="geometry"/>
                </mxCell>
                <mxCell id="165" style="edgeStyle=none;html=1;exitX=1;exitY=0.5;exitDx=0;exitDy=0;exitPerimeter=0;entryX=0;entryY=0.5;entryDx=0;entryDy=0;entryPerimeter=0;" edge="1" parent="1" source="136" target="162">
                    <mxGeometry relative="1" as="geometry"/>
                </mxCell>
                <mxCell id="169" style="edgeStyle=none;html=1;exitX=1;exitY=0.5;exitDx=0;exitDy=0;exitPerimeter=0;entryX=0;entryY=0.5;entryDx=0;entryDy=0;entryPerimeter=0;" edge="1" parent="1" source="138" target="162">
                    <mxGeometry relative="1" as="geometry"/>
                </mxCell>
                <mxCell id="171" style="edgeStyle=none;html=1;exitX=1;exitY=0.5;exitDx=0;exitDy=0;exitPerimeter=0;entryX=0.07;entryY=0.4;entryDx=0;entryDy=0;entryPerimeter=0;" edge="1" parent="1" source="162" target="151">
                    <mxGeometry relative="1" as="geometry"/>
                </mxCell>
                <mxCell id="173" style="edgeStyle=none;html=1;exitX=1;exitY=0.5;exitDx=0;exitDy=0;exitPerimeter=0;entryX=0.96;entryY=0.7;entryDx=0;entryDy=0;entryPerimeter=0;" edge="1" parent="1" source="162" target="150">
                    <mxGeometry relative="1" as="geometry"/>
                </mxCell>
                <mxCell id="175" value="&lt;b&gt;Leaderboad Service&lt;/b&gt;" style="swimlane;fontStyle=0;childLayout=stackLayout;horizontal=1;startSize=30;horizontalStack=0;resizeParent=1;resizeParentMax=0;resizeLast=0;collapsible=1;marginBottom=0;whiteSpace=wrap;html=1;" vertex="1" collapsed="1" parent="1">
                    <mxGeometry x="363.5" y="1380" width="150" height="30" as="geometry">
                        <mxRectangle x="379" y="1430" width="160" height="60" as="alternateBounds"/>
                    </mxGeometry>
                </mxCell>
                <mxCell id="180" style="edgeStyle=none;html=1;exitX=1;exitY=0.5;exitDx=0;exitDy=0;" edge="1" parent="1" source="177">
                    <mxGeometry relative="1" as="geometry">
                        <mxPoint x="840" y="1260" as="targetPoint"/>
                    </mxGeometry>
                </mxCell>
                <mxCell id="183" style="edgeStyle=none;html=1;exitX=1;exitY=0.5;exitDx=0;exitDy=0;" edge="1" parent="1" source="177">
                    <mxGeometry relative="1" as="geometry">
                        <mxPoint x="720" y="1520" as="targetPoint"/>
                    </mxGeometry>
                </mxCell>
                <mxCell id="177" value="&lt;b&gt;Leaderboad Service&lt;/b&gt;" style="swimlane;fontStyle=0;childLayout=stackLayout;horizontal=1;startSize=30;horizontalStack=0;resizeParent=1;resizeParentMax=0;resizeLast=0;collapsible=1;marginBottom=0;whiteSpace=wrap;html=1;" vertex="1" collapsed="1" parent="1">
                    <mxGeometry x="384.5" y="1420" width="150" height="30" as="geometry">
                        <mxRectangle x="379" y="1430" width="160" height="60" as="alternateBounds"/>
                    </mxGeometry>
                </mxCell>
                <mxCell id="181" style="edgeStyle=none;html=1;exitX=1;exitY=0.5;exitDx=0;exitDy=0;entryX=0.141;entryY=0.764;entryDx=0;entryDy=0;entryPerimeter=0;" edge="1" parent="1" source="178" target="151">
                    <mxGeometry relative="1" as="geometry">
                        <mxPoint x="840" y="1260" as="targetPoint"/>
                    </mxGeometry>
                </mxCell>
                <mxCell id="184" style="edgeStyle=none;html=1;exitX=1;exitY=0.5;exitDx=0;exitDy=0;" edge="1" parent="1" source="178">
                    <mxGeometry relative="1" as="geometry">
                        <mxPoint x="720" y="1520" as="targetPoint"/>
                    </mxGeometry>
                </mxCell>
                <mxCell id="178" value="&lt;b&gt;Leaderboad Service&lt;/b&gt;" style="swimlane;fontStyle=0;childLayout=stackLayout;horizontal=1;startSize=30;horizontalStack=0;resizeParent=1;resizeParentMax=0;resizeLast=0;collapsible=1;marginBottom=0;whiteSpace=wrap;html=1;" vertex="1" collapsed="1" parent="1">
                    <mxGeometry x="424.5" y="1463" width="150" height="30" as="geometry">
                        <mxRectangle x="379" y="1430" width="160" height="60" as="alternateBounds"/>
                    </mxGeometry>
                </mxCell>
                <mxCell id="179" style="edgeStyle=none;html=1;exitX=1;exitY=0.5;exitDx=0;exitDy=0;entryX=0.129;entryY=0.746;entryDx=0;entryDy=0;entryPerimeter=0;" edge="1" parent="1" source="175" target="151">
                    <mxGeometry relative="1" as="geometry"/>
                </mxCell>
                <mxCell id="182" style="edgeStyle=none;html=1;exitX=1;exitY=0.5;exitDx=0;exitDy=0;entryX=0.915;entryY=0.402;entryDx=0;entryDy=0;entryPerimeter=0;" edge="1" parent="1" source="175" target="150">
                    <mxGeometry relative="1" as="geometry"/>
                </mxCell>
                <mxCell id="185" value="" style="edgeStyle=none;html=1;" edge="1" parent="1">
                    <mxGeometry relative="1" as="geometry">
                        <mxPoint x="215" y="1542" as="sourcePoint"/>
                        <mxPoint x="270" y="1518.0106382978722" as="targetPoint"/>
                    </mxGeometry>
                </mxCell>
                <mxCell id="186" value="Lots of&lt;div&gt;Users&lt;/div&gt;" style="shape=umlActor;verticalLabelPosition=bottom;verticalAlign=top;html=1;outlineConnect=0;" vertex="1" parent="1">
                    <mxGeometry x="175" y="1492" width="30" height="60" as="geometry"/>
                </mxCell>
                <mxCell id="187" value="" style="shape=umlActor;verticalLabelPosition=bottom;verticalAlign=top;html=1;outlineConnect=0;" vertex="1" parent="1">
                    <mxGeometry x="225" y="1540" width="30" height="60" as="geometry"/>
                </mxCell>
                <mxCell id="188" value="" style="shape=umlActor;verticalLabelPosition=bottom;verticalAlign=top;html=1;outlineConnect=0;" vertex="1" parent="1">
                    <mxGeometry x="130" y="1540" width="30" height="60" as="geometry"/>
                </mxCell>
                <mxCell id="193" value="" style="edgeStyle=none;orthogonalLoop=1;jettySize=auto;html=1;entryX=0;entryY=0.5;entryDx=0;entryDy=0;" edge="1" parent="1" target="175">
                    <mxGeometry width="100" relative="1" as="geometry">
                        <mxPoint x="300" y="1500" as="sourcePoint"/>
                        <mxPoint x="380" y="1470" as="targetPoint"/>
                        <Array as="points"/>
                    </mxGeometry>
                </mxCell>
                <mxCell id="194" value="" style="edgeStyle=none;orthogonalLoop=1;jettySize=auto;html=1;entryX=0;entryY=0.5;entryDx=0;entryDy=0;" edge="1" parent="1" target="177">
                    <mxGeometry width="100" relative="1" as="geometry">
                        <mxPoint x="300" y="1500" as="sourcePoint"/>
                        <mxPoint x="374" y="1405" as="targetPoint"/>
                        <Array as="points"/>
                    </mxGeometry>
                </mxCell>
                <mxCell id="195" value="" style="edgeStyle=none;orthogonalLoop=1;jettySize=auto;html=1;" edge="1" parent="1">
                    <mxGeometry width="100" relative="1" as="geometry">
                        <mxPoint x="300" y="1500" as="sourcePoint"/>
                        <mxPoint x="420" y="1480" as="targetPoint"/>
                        <Array as="points"/>
                    </mxGeometry>
                </mxCell>
                <mxCell id="196" value="" style="ellipse;whiteSpace=wrap;html=1;" vertex="1" parent="1">
                    <mxGeometry x="270" y="1450" width="80" height="80" as="geometry"/>
                </mxCell>
                <mxCell id="197" value="&lt;span style=&quot;color: rgb(35, 47, 62);&quot;&gt;Load Balancer&lt;/span&gt;" style="sketch=0;outlineConnect=0;fontColor=#232F3E;gradientColor=none;fillColor=#8C4FFF;strokeColor=none;dashed=0;verticalLabelPosition=bottom;verticalAlign=top;align=center;html=1;fontSize=12;fontStyle=0;aspect=fixed;pointerEvents=1;shape=mxgraph.aws4.network_load_balancer;" vertex="1" parent="1">
                    <mxGeometry x="271" y="1451" width="78" height="78" as="geometry"/>
                </mxCell>
            </root>
        </mxGraphModel>
    </diagram>
</mxfile>